<svg width="512" height="248" viewBox="0 0 512 248" fill="none" xmlns="http://www.w3.org/2000/svg">
<path d="M492 104H68.4419L138.606 34.1759C146.435 26.3839 146.465 13.7209 138.673 5.89193C130.881 -1.93807 118.217 -1.96706 110.388 5.82394L5.88389 109.824C5.87689 109.83 5.87189 109.837 5.86589 109.843C-1.94311 117.635 -1.96811 130.339 5.86389 138.157C5.87089 138.163 5.87589 138.17 5.88189 138.176L110.386 242.176C118.214 249.966 130.878 249.939 138.671 242.108C146.463 234.279 146.433 221.616 138.604 213.824L68.4419 144H492C503.046 144 512 135.046 512 124C512 112.954 503.046 104 492 104Z" fill="#BADA55"/>
</svg>
