<svg width="300" height="512" viewBox="0 0 300 512" fill="none" xmlns="http://www.w3.org/2000/svg">
<path d="M284.926 126.402C293.211 126.402 299.926 119.684 299.926 111.402V15C299.926 6.71484 293.211 0 284.926 0H172.453C119.887 0 77.1211 42.7656 77.1211 95.332V192.801H15C6.71484 192.801 0 199.516 0 207.801V304.199C0 312.484 6.71484 319.199 15 319.199H77.1211V497C77.1211 505.285 83.8359 512 92.1211 512H188.523C196.809 512 203.523 505.285 203.523 497V319.199H265.645C272.797 319.199 278.953 314.152 280.355 307.141L299.633 210.742C300.516 206.336 299.375 201.766 296.523 198.289C293.676 194.816 289.418 192.801 284.926 192.801H203.523V126.402H284.926ZM188.523 222.801H266.629L253.348 289.199H188.523C180.238 289.199 173.523 295.914 173.523 304.199V482H107.121V304.199C107.121 295.914 100.406 289.199 92.1211 289.199H30V222.801H92.1211C100.406 222.801 107.121 216.086 107.121 207.801V95.332C107.121 59.3086 136.43 30 172.453 30H269.926V96.4023H188.523C180.238 96.4023 173.523 103.117 173.523 111.402V207.801C173.523 216.086 180.238 222.801 188.523 222.801V222.801Z" fill="#BADA55"/>
</svg>
