<svg width="512" height="402" viewBox="0 0 512 402" fill="none" xmlns="http://www.w3.org/2000/svg">
<path d="M256 401.007C190.852 401.007 133.679 396.749 97.1882 393.177C50.9926 388.656 14.1883 353.425 7.68503 307.506C-2.56233 234.774 -2.56233 167.226 7.68503 94.4932C14.1883 48.5746 50.9926 13.3444 97.1882 8.82319C133.678 5.25107 190.852 0.99292 256 0.99292C321.147 0.99292 378.32 5.25107 414.811 8.82319C461.007 13.3444 497.811 48.5746 504.314 94.4942C514.562 167.226 514.562 234.774 504.314 307.507C497.811 353.425 461.007 388.656 414.811 393.177C378.32 396.749 321.147 401.007 256 401.007V401.007ZM256 40.9943C192.468 40.9943 136.69 45.1485 101.085 48.6356C73.3183 51.3537 51.1986 72.5174 47.2924 100.102C42.4483 134.308 39.9922 168.254 39.9922 201.001C39.9922 233.748 42.4483 267.693 47.2924 301.898C51.1986 329.484 73.3183 350.648 101.085 353.366C136.691 356.852 192.468 361.008 256 361.008C319.532 361.008 375.31 356.853 410.914 353.366C438.681 350.648 460.801 329.484 464.707 301.899C469.551 267.694 472.007 233.748 472.007 201.001C472.007 168.254 469.551 134.309 464.707 100.103C460.801 72.5174 438.681 51.3537 410.914 48.6356C375.31 45.1485 319.532 40.9943 256 40.9943V40.9943ZM230.056 295.799C203.315 296.163 179.371 272.974 179.997 245.917V155.583C179.997 137.493 189.42 121.333 205.205 112.357C221.114 103.309 240.002 103.495 255.726 112.849L331.642 158.015C363.946 176.549 363.938 224.956 331.642 243.483L255.726 288.65C247.719 293.413 238.891 295.799 230.056 295.799V295.799ZM230.103 145.751C227.77 145.751 225.914 146.599 224.98 147.13C223.12 148.188 219.999 150.692 219.999 155.583V245.917C219.999 250.809 223.12 253.313 224.98 254.37C226.537 255.256 230.656 257.021 235.274 254.272L311.191 209.105C317.654 205.247 317.663 196.26 311.191 192.394L235.274 147.227C233.426 146.128 231.658 145.751 230.103 145.751V145.751Z" fill="#BADA55"/>
</svg>
